<svg id="レイヤー_1" data-name="レイヤー 1" xmlns="http://www.w3.org/2000/svg" viewBox="0 0 1366.6 294.09"><defs><style>.cls-1{fill:#e9e9ec;}.cls-2{fill:#0037aa;}.cls-3{fill:#00bfff;}</style></defs><polygon class="cls-1" points="244.14 77.94 284.96 77.94 284.96 231.45 298.93 231.45 298.93 77.94 339.75 77.94 339.75 62.64 244.14 62.64 244.14 77.94"/><path class="cls-1" d="M424.17,120.83H414c-12.09,0-21.73,3.06-28.74,9.12V73.59h-14V242.41h14v-95.6c6.4-7.09,16.07-10.68,28.74-10.68h10.2c12.47,0,18.53,7.15,18.53,21.87v84.41h14V158C456.67,133.34,445.73,120.83,424.17,120.83Z" transform="translate(-14.17 -10.95)"/><path class="cls-1" d="M526.92,120.83H506.51C485,120.83,474,133.34,474,158v47.23c0,24.67,10.94,37.18,32.5,37.18h47.81v-15.3H506.51C494,227.11,488,220,488,205.23v-16h71.44V158C559.42,133.34,548.49,120.83,526.92,120.83Zm-20.41,15.3h20.41c12.48,0,18.54,7.15,18.54,21.87v16H488V158C488,143.28,494,136.13,506.51,136.13Z" transform="translate(-14.17 -10.95)"/><polygon class="cls-1" points="672.35 198.25 603.98 62.64 590.7 62.64 590.7 231.45 604.66 231.45 604.66 95.84 673.03 231.45 686.31 231.45 686.31 62.64 672.35 62.64 672.35 198.25"/><path class="cls-1" d="M770.74,120.83H750.33c-21.56,0-32.5,12.51-32.5,37.17v47.23c0,24.67,10.94,37.18,32.5,37.18h47.81v-15.3H750.33c-12.47,0-18.53-7.15-18.53-21.88v-16h71.44V158C803.24,133.34,792.3,120.83,770.74,120.83Zm-20.41,15.3h20.41c12.47,0,18.53,7.15,18.53,21.87v16H731.8V158C731.8,143.28,737.86,136.13,750.33,136.13Z" transform="translate(-14.17 -10.95)"/><polygon class="cls-1" points="899.64 209.88 875.63 109.87 862.41 109.87 838.4 209.88 814.4 109.87 800.34 109.87 829.75 231.45 847.05 231.45 869.02 139.51 890.99 231.45 908.29 231.45 937.7 109.87 923.64 109.87 899.64 209.88"/><path class="cls-1" d="M997.31,110.76v94.47c0,24.67,10.93,37.18,32.5,37.18h30.61c21.56,0,32.5-12.51,32.5-37.18V149.34h-54.79v15.3H1079v40.59c0,14.73-6.06,21.88-18.53,21.88h-30.61c-12.47,0-18.54-7.15-18.54-21.88V110.76c0-14.72,6.07-21.87,18.54-21.87h63.11V73.59h-63.11C1008.24,73.59,997.31,86.1,997.31,110.76Z" transform="translate(-14.17 -10.95)"/><path class="cls-1" d="M1153,120.83h-32.5v15.3H1153c19.34,0,28.73,11,28.73,33.68v7.38c-7-6.06-16.64-9.12-28.73-9.12h-10.21c-21.56,0-32.5,12.5-32.5,37.16s10.94,37.18,32.5,37.18H1153c12.61,0,22.55-3.34,29.63-9.92l2.56,9.92h10.51v-72.6C1195.67,137.31,1181.3,120.83,1153,120.83Zm-10.21,62.53H1153c12.66,0,22.33,3.6,28.73,10.69v22.37c-6.39,7.1-16.06,10.69-28.73,10.69h-10.21c-12.47,0-18.53-7.15-18.53-21.88S1130.29,183.36,1142.76,183.36Z" transform="translate(-14.17 -10.95)"/><path class="cls-1" d="M1242.29,73.59h-14v47.24H1213v15.3h15.32v69.1c0,24.67,10.93,37.18,32.49,37.18H1278v-15.3h-17.19c-12.47,0-18.53-7.15-18.53-21.88v-69.1H1278v-15.3h-35.72Z" transform="translate(-14.17 -10.95)"/><path class="cls-1" d="M1380.76,189.27V158c0-24.66-10.93-37.17-32.49-37.17h-20.41c-21.57,0-32.5,12.51-32.5,37.17v47.23c0,24.67,10.93,37.18,32.5,37.18h47.8v-15.3h-47.8c-12.48,0-18.54-7.15-18.54-21.88v-16Zm-52.9-53.14h20.41c12.47,0,18.53,7.15,18.53,21.87v16h-57.48V158C1309.32,143.28,1315.38,136.13,1327.86,136.13Z" transform="translate(-14.17 -10.95)"/><path class="cls-2" d="M113.49,239.47,85,268.07a3.6,3.6,0,0,1-6.15-2.54V134.68a16.22,16.22,0,0,1,4.74-11.47L112.08,94.6a3.6,3.6,0,0,1,6.15,2.54V228A16.28,16.28,0,0,1,113.49,239.47Zm-52.65-109V296a9,9,0,0,0,15.41,6.36l53-53.18a24.09,24.09,0,0,0,7-17V66.66a9,9,0,0,0-15.41-6.36l-53,53.18A24,24,0,0,0,60.84,130.47Z" transform="translate(-14.17 -10.95)"/><path class="cls-3" d="M43.93,215.77l-5.61,5.63a3.6,3.6,0,0,1-6.15-2.54V88a16.28,16.28,0,0,1,4.74-11.47L65.4,47.93a3.6,3.6,0,0,1,6.15,2.54V82.84a3.59,3.59,0,0,0,6.14,2.54l8.14-8.17a12.8,12.8,0,0,0,3.73-9V20a9,9,0,0,0-15.41-6.36l-53,53.18a24.08,24.08,0,0,0-7,17V249.34a9,9,0,0,0,15.4,6.36l16.77-16.83a12.8,12.8,0,0,0,3.73-9V218.31A3.59,3.59,0,0,0,43.93,215.77Z" transform="translate(-14.17 -10.95)"/></svg>